<svg width="24" height="23" viewBox="0 0 24 23" fill="none" xmlns="http://www.w3.org/2000/svg">
<path d="M23.8059 0.0575362C22.5859 0.016785 21.3699 -0.0238384 20.1489 0.0169044C14.4797 0.255433 8.05942 1.26029 4.02798 5.67553C2.10448 7.78291 1.06064 10.3932 1.20806 13.2593C1.30448 14.8802 1.73347 16.4641 2.4685 17.9125C2.46171 17.9248 2.45492 17.937 2.44813 17.949C2.44445 17.9555 2.44076 17.962 2.43706 17.9684C2.22083 18.3373 1.76373 18.8506 1.30273 19.3682C0.71945 20.0231 0.129913 20.6851 0.0140045 21.0706C-0.0153521 21.1684 0.00631142 21.2879 0.0342693 21.3836C0.129674 21.706 0.461092 21.9579 0.721139 22.1555L0.740636 22.1704C1.311 21.6096 1.82895 21.0003 2.34686 20.3911L2.38815 20.3426L3.43619 19.0626C6.21976 20.6409 8.95305 21.1391 12.0755 20.2727C15.8987 19.2121 18.8549 16.4921 20.7595 13.0748C22.8808 9.27043 23.8575 4.38539 23.9994 0.0639926L23.8059 0.0575362ZM18.268 3.87054C18.2826 3.87428 18.297 3.87792 18.3113 3.88152C18.447 3.91573 18.5701 3.94675 18.6851 4.03822C18.8081 4.13597 18.9045 4.29185 18.8961 4.45149C18.8863 4.64239 18.8165 4.7383 18.6851 4.87176C18.2762 5.28566 17.7815 5.64935 17.296 6.0063C17.0815 6.16407 16.8687 6.32051 16.6659 6.47938C15.3817 7.47362 14.1164 8.4907 12.8692 9.53036C13.6566 9.3396 16.2963 8.88755 16.9831 9.12231C17.1955 9.19568 17.2661 9.29978 17.3527 9.49822C17.3338 9.79167 17.2444 9.96984 16.9649 10.0928C16.8379 10.149 15.8911 10.241 14.8293 10.3443C13.6199 10.4619 12.2607 10.594 11.7946 10.7041C11.4991 10.774 11.2657 10.8725 11.0177 11.0465C10.6423 11.3098 10.3029 11.6385 9.96789 11.963C9.84335 12.0836 9.71941 12.2036 9.59444 12.3195C8.49401 13.341 7.41453 14.3702 6.35952 15.4392C7.10899 15.6048 8.21108 15.5517 9.27804 15.5004C10.4798 15.4425 11.6372 15.3868 12.1957 15.6481C12.2872 15.7655 12.3138 15.8898 12.3012 16.0394C12.2907 16.1595 12.2222 16.235 12.137 16.3125C11.6758 16.7324 7.12666 16.5983 6.42099 16.5179C6.39242 16.5134 6.3629 16.5084 6.33274 16.5032C6.17562 16.4763 6.00115 16.4464 5.85225 16.4774C4.7099 16.7129 3.14482 18.482 2.465 19.3686L2.50659 19.2716C2.8238 18.5315 3.14244 17.7879 3.5836 17.1112C4.3305 15.9646 6.45103 13.842 7.49069 12.8386C7.65587 12.6793 7.84857 12.5171 8.04699 12.3501C8.48546 11.981 8.95215 11.5882 9.21086 11.152C9.47156 10.7123 9.62675 9.79307 9.78964 8.82817C9.99434 7.61568 10.2112 6.33115 10.6648 5.83567C10.7969 5.69174 10.8367 5.68316 11.0177 5.66456C11.1965 5.74303 11.3111 5.81924 11.4124 5.99267C11.4865 6.11921 11.4963 6.24552 11.4767 6.38652C11.43 6.72814 11.31 7.08748 11.1926 7.4392C11.1291 7.62943 11.0663 7.81742 11.0163 7.99917C10.8462 8.61721 10.7172 9.2451 10.5884 9.87247C10.5739 9.94314 10.5592 10.0145 10.5447 10.0851C11.1446 9.50729 11.8188 8.99363 12.4872 8.48426C12.7039 8.31921 12.9199 8.1546 13.1326 7.98841C13.4545 7.73684 13.7779 7.48575 14.1016 7.23437C15.5109 6.13985 16.9277 5.03951 18.268 3.87054Z" fill="#010400"/>
</svg>
