<svg aria-hidden="true" style="position: absolute; width: 0; height: 0; overflow: hidden;" version="1.1" xmlns="http://www.w3.org/2000/svg" xmlns:xlink="http://www.w3.org/1999/xlink">
<defs>
<symbol id="basketball-icon" viewBox="0 0 31 32">
<title>basketball-icon</title>
<path fill="#fff" style="fill: var(--color1, #fff)" d="M4.565 26.663c2.958 2.958 6.876 4.586 11.038 4.586s8.081-1.628 11.038-4.586c6.086-6.086 6.086-15.989 0-22.077-2.956-2.957-6.878-4.586-11.038-4.586s-8.081 1.63-11.038 4.588c-6.086 6.085-6.086 15.989 0 22.075zM16.085 3.147c2.607 0.094 5.117 1.011 7.171 2.619l-7.653 7.652-2.279-2.279c1.812-2.309 2.797-5.164 2.761-7.992zM11.091 8.907l-3.141-3.141c1.474-1.156 3.192-1.962 5.023-2.357-0.023 1.929-0.695 3.867-1.883 5.498zM8.868 11.099c-1.59 1.086-3.474 1.662-5.399 1.65 0.406-1.737 1.182-3.365 2.276-4.773l3.123 3.124zM3.132 15.853c0.12 0.003 0.24 0.022 0.361 0.022 2.747 0.009 5.421-0.883 7.613-2.538l2.29 2.288-7.65 7.65c-1.651-2.126-2.568-4.731-2.613-7.422zM22.322 20.138c1.627-1.183 3.559-1.854 5.476-1.883-0.39 1.829-1.189 3.545-2.337 5.022l-3.139-3.139zM23.254 25.485c-1.408 1.1-3.037 1.883-4.775 2.295-0.018-1.933 0.558-3.825 1.65-5.42l3.125 3.125zM15.381 28.116c-2.698-0.043-5.308-0.967-7.432-2.632l7.653-7.652 2.284 2.284c-1.722 2.254-2.59 5.098-2.505 8zM28.062 15.145c-2.821-0.028-5.671 0.952-7.973 2.76l-2.279-2.279 7.65-7.65c1.597 2.058 2.507 4.566 2.602 7.17z"></path>
</symbol>
<symbol id="burger-icon-mobile" viewBox="0 0 44 32">
<title>burger-icon-mobile</title>
<path fill="#fff" style="fill: var(--color1, #fff)" d="M0 0h42.667v5.333h-42.667v-5.333zM0 13.333h42.667v5.333h-42.667v-5.333zM0 26.667h42.667v5.333h-42.667v-5.333z"></path>
</symbol>
<symbol id="burger-icon-tablet" viewBox="0 0 43 32">
<title>burger-icon-tablet</title>
<path fill="#fff" style="fill: var(--color1, #fff)" d="M0 0h42.667v5.333h-42.667v-5.333zM0 13.333h42.667v5.333h-42.667v-5.333zM0 26.667h42.667v5.333h-42.667v-5.333z"></path>
</symbol>
<symbol id="cheese-icon" viewBox="0 0 34 32">
<title>cheese-icon</title>
<path fill="#fff" style="fill: var(--color1, #fff)" d="M22.166 0.018c-0.385-0.055-0.777 0.019-1.112 0.21l-20.211 11.304c-0.080 0.045-0.153 0.099-0.219 0.161l-0.168 0.129c-0.114 0.127-0.211 0.268-0.286 0.42-0.12 0.213-0.178 0.453-0.168 0.694v16.148c0 0.428 0.177 0.839 0.493 1.142s0.744 0.473 1.191 0.473h30.317c0.447 0 0.875-0.17 1.191-0.473s0.493-0.714 0.493-1.142v-16.148c0.006-3.118-1.152-6.135-3.265-8.504s-5.042-3.936-8.255-4.414zM22.166 3.328c2.025 0.398 3.877 1.374 5.311 2.801s2.384 3.237 2.723 5.192h-22.283l14.249-7.993zM30.317 27.469h-26.948v-12.918h26.948v12.918z"></path>
<path fill="#fff" style="fill: var(--color1, #fff)" d="M7.58 25.855c1.395 0 2.526-1.084 2.526-2.422s-1.131-2.422-2.526-2.422c-1.395 0-2.526 1.084-2.526 2.422s1.131 2.422 2.526 2.422z"></path>
<path fill="#fff" style="fill: var(--color1, #fff)" d="M16.001 21.010c1.395 0 2.526-1.084 2.526-2.422s-1.131-2.422-2.526-2.422-2.526 1.085-2.526 2.422c0 1.338 1.131 2.422 2.526 2.422z"></path>
<path fill="#fff" style="fill: var(--color1, #fff)" d="M25.265 25.855c1.86 0 3.368-1.446 3.368-3.23s-1.508-3.23-3.368-3.23-3.369 1.446-3.369 3.23c0 1.784 1.508 3.23 3.369 3.23z"></path>
</symbol>
<symbol id="contacts-mail-icon" viewBox="0 0 40 32">
<title>contacts-mail-icon</title>
<path d="M36 0h-32c-2.206 0-4 1.794-4 4v24c0 2.206 1.794 4 4 4h32c2.206 0 4-1.794 4-4v-24c0-2.206-1.794-4-4-4zM36 4v1.022l-16 12.446-16-12.444v-1.024h32zM4 28v-17.912l14.772 11.49c0.35 0.275 0.783 0.425 1.228 0.425s0.878-0.15 1.228-0.425l14.772-11.49 0.004 17.912h-32.004z"></path>
</symbol>
<symbol id="contacts-phone-icon" viewBox="0 0 32 32">
<title>contacts-phone-icon</title>
<path d="M24.778 17.336c-0.156-0.156-0.342-0.281-0.546-0.365s-0.423-0.128-0.645-0.128c-0.221 0-0.44 0.044-0.645 0.128s-0.39 0.209-0.546 0.365l-2.685 2.685c-1.245-0.371-3.567-1.213-5.039-2.685s-2.314-3.795-2.685-5.039l2.685-2.685c0.157-0.156 0.281-0.342 0.365-0.546s0.128-0.423 0.128-0.645c0-0.221-0.044-0.44-0.128-0.645s-0.209-0.39-0.365-0.546l-6.737-6.737c-0.156-0.157-0.342-0.281-0.546-0.365s-0.423-0.128-0.645-0.128c-0.221 0-0.44 0.044-0.645 0.128s-0.39 0.209-0.546 0.365l-4.568 4.568c-0.64 0.64-1 1.519-0.987 2.417 0.039 2.398 0.674 10.728 7.239 17.293s14.895 7.198 17.295 7.239h0.047c0.889 0 1.73-0.35 2.366-0.987l4.568-4.568c0.157-0.156 0.281-0.342 0.365-0.546s0.128-0.423 0.128-0.645c0-0.221-0.044-0.44-0.128-0.645s-0.209-0.39-0.365-0.546l-6.737-6.739zM24.565 28.64c-2.102-0.035-9.293-0.6-14.944-6.252-5.669-5.669-6.218-12.886-6.252-14.946l3.377-3.377 4.355 4.355-2.178 2.178c-0.198 0.198-0.344 0.442-0.424 0.71s-0.092 0.552-0.035 0.826c0.040 0.194 1.029 4.787 3.825 7.582s7.389 3.784 7.582 3.825c0.274 0.059 0.558 0.048 0.826-0.032s0.512-0.226 0.71-0.425l2.179-2.178 4.355 4.355-3.379 3.377z"></path>
</symbol>
<symbol id="facebook" viewBox="0 0 32 32">
<title>facebook</title>
<path fill="#fff" style="fill: var(--color1, #fff)" d="M32 16.098c0-8.891-7.163-16.098-16-16.098s-16 7.207-16 16.098c0 8.035 5.851 14.695 13.5 15.902v-11.249h-4.063v-4.653h4.063v-3.547c0-4.035 2.389-6.263 6.043-6.263 1.751 0 3.582 0.314 3.582 0.314v3.962h-2.017c-1.988 0-2.608 1.241-2.608 2.514v3.020h4.437l-0.709 4.653h-3.728v11.249c7.649-1.208 13.5-7.867 13.5-15.902z"></path>
</symbol>
<symbol id="faq-icon-down" viewBox="0 0 54 32">
<title>faq-icon-down</title>
<path fill="#fff" style="fill: var(--color1, #fff); stroke: var(--color1, #fff)" stroke="#fff" stroke-linejoin="miter" stroke-linecap="butt" stroke-miterlimit="4" stroke-width="3.2" d="M49.641 1.834c0.312-0.312 0.819-0.312 1.131 0l1.131 1.131c0.313 0.312 0.312 0.819 0 1.131l-24.469 24.469c-0.312 0.312-0.819 0.312-1.131 0l-24.469-24.469c-0.312-0.312-0.312-0.819 0-1.131l1.131-1.131c0.312-0.312 0.819-0.312 1.131 0l22.772 22.772 22.772-22.772z"></path>
</symbol>
<symbol id="faq-icon-up" viewBox="0 0 54 32">
<title>faq-icon-up</title>
<path fill="#fff" style="fill: var(--color1, #fff); stroke: var(--color1, #fff)" stroke="#fff" stroke-linejoin="miter" stroke-linecap="butt" stroke-miterlimit="4" stroke-width="3.2" d="M4.097 28.566c-0.312 0.312-0.819 0.312-1.131 0l-1.131-1.131c-0.312-0.312-0.312-0.819 0-1.131l24.469-24.469c0.312-0.312 0.819-0.312 1.131 0l24.469 24.469c0.312 0.312 0.313 0.819 0 1.131l-1.131 1.131c-0.312 0.312-0.819 0.312-1.131 0l-22.772-22.772-22.772 22.772z"></path>
</symbol>
<symbol id="health-icon" viewBox="0 0 31 32">
<title>health-icon</title>
<path fill="#fff" style="fill: var(--color1, #fff)" d="M27.677 5.218l-9.038 5.219v-10.437h-6.4v10.437l-9.038-5.219-3.2 5.544 9.037 5.218-9.037 5.218 3.2 5.544 9.038-5.218v10.437h6.4v-10.437l9.038 5.218 3.2-5.544-9.037-5.218 9.037-5.218-3.2-5.544z"></path>
</symbol>
<symbol id="instagram" viewBox="0 0 32 32">
<title>instagram</title>
<path fill="#fff" style="fill: var(--color1, #fff)" d="M15.998 2.882c4.274 0 4.78 0.019 6.461 0.094 1.563 0.069 2.406 0.331 2.969 0.55 0.744 0.288 1.281 0.638 1.837 1.194 0.563 0.563 0.906 1.094 1.2 1.838 0.219 0.563 0.481 1.412 0.55 2.969 0.075 1.688 0.094 2.194 0.094 6.462s-0.019 4.78-0.094 6.462c-0.069 1.563-0.331 2.406-0.55 2.969-0.288 0.744-0.637 1.281-1.194 1.837-0.563 0.563-1.094 0.906-1.837 1.2-0.563 0.219-1.413 0.481-2.969 0.55-1.688 0.075-2.194 0.094-6.462 0.094s-4.78-0.019-6.462-0.094c-1.563-0.069-2.406-0.331-2.969-0.55-0.744-0.288-1.281-0.637-1.838-1.194-0.563-0.563-0.906-1.094-1.2-1.837-0.219-0.563-0.481-1.413-0.55-2.969-0.075-1.688-0.094-2.194-0.094-6.462s0.019-4.78 0.094-6.462c0.069-1.563 0.331-2.406 0.55-2.969 0.288-0.744 0.638-1.281 1.194-1.838 0.563-0.563 1.094-0.906 1.838-1.2 0.563-0.219 1.412-0.481 2.969-0.55 1.681-0.075 2.188-0.094 6.462-0.094h0.001zM15.998 0.001c-4.343 0-4.886 0.019-6.593 0.094-1.7 0.075-2.869 0.35-3.88 0.744-1.056 0.412-1.95 0.956-2.837 1.85-0.894 0.888-1.438 1.781-1.85 2.831-0.394 1.019-0.669 2.181-0.744 3.88-0.075 1.713-0.094 2.256-0.094 6.599s0.019 4.886 0.094 6.593c0.075 1.7 0.35 2.869 0.744 3.881 0.413 1.056 0.956 1.95 1.85 2.837 0.887 0.887 1.781 1.438 2.831 1.844 1.019 0.394 2.181 0.669 3.88 0.744 1.706 0.075 2.25 0.094 6.593 0.094s4.887-0.019 6.593-0.094c1.7-0.075 2.869-0.35 3.88-0.744 1.050-0.406 1.944-0.956 2.831-1.844s1.438-1.781 1.844-2.831c0.394-1.019 0.669-2.181 0.744-3.88 0.075-1.706 0.094-2.25 0.094-6.593s-0.019-4.886-0.094-6.593c-0.075-1.7-0.35-2.869-0.744-3.88-0.394-1.063-0.938-1.956-1.831-2.844-0.887-0.887-1.781-1.438-2.831-1.844-1.019-0.394-2.181-0.669-3.88-0.744-1.712-0.081-2.256-0.1-6.599-0.1l-0.001 0.001z"></path>
</symbol>
<symbol id="Linkedin" viewBox="0 0 32 32">
<title>Linkedin</title>
<path fill="#fff" style="fill: var(--color1, #fff)" d="M29 0h-26c-1.65 0-3 1.35-3 3v26c0 1.65 1.35 3 3 3h26c1.65 0 3-1.35 3-3v-26c0-1.65-1.35-3-3-3zM12 26h-4v-14h4v14zM10 10c-1.106 0-2-0.894-2-2s0.894-2 2-2c1.106 0 2 0.894 2 2s-0.894 2-2 2zM26 26h-4v-8c0-1.106-0.894-2-2-2s-2 0.894-2 2v8h-4v-14h4v2.481c0.825-1.131 2.087-2.481 3.5-2.481 2.488 0 4.5 2.238 4.5 5v9z"></path>
</symbol>
<symbol id="LOGOHEADER" viewBox="0 0 66 32">
<title>LOGOHEADER</title>
<path fill="#fff" style="fill: var(--color1, #fff)" d="M61.107 16.854c-0.768-0.025-1.534-0.051-2.302-0.025-3.57 0.148-7.612 0.772-10.15 3.512-1.211 1.308-1.868 2.928-1.775 4.707 0.061 1.006 0.331 1.989 0.794 2.888-0.004 0.008-0.009 0.015-0.013 0.023-0.002 0.004-0.005 0.008-0.007 0.012-0.136 0.229-0.424 0.548-0.714 0.869-0.367 0.407-0.738 0.817-0.811 1.057-0.019 0.061-0.005 0.135 0.013 0.194 0.060 0.2 0.269 0.356 0.432 0.479l0.012 0.009c0.359-0.348 0.685-0.726 1.011-1.104l0.026-0.030 0.66-0.794c1.753 0.98 3.473 1.289 5.439 0.751 2.407-0.658 4.268-2.347 5.467-4.468 1.336-2.361 1.951-5.394 2.040-8.076l-0.122-0.004zM57.62 19.22c0.009 0.002 0.019 0.005 0.027 0.007 0.086 0.021 0.163 0.041 0.236 0.097 0.077 0.061 0.138 0.157 0.133 0.257-0.006 0.119-0.050 0.178-0.133 0.261-0.258 0.257-0.569 0.483-0.875 0.704-0.135 0.098-0.269 0.195-0.397 0.294-0.809 0.617-1.605 1.248-2.39 1.894 0.496-0.118 2.158-0.399 2.59-0.253 0.134 0.046 0.179 0.11 0.233 0.233-0.012 0.182-0.068 0.293-0.244 0.369-0.080 0.035-0.676 0.092-1.345 0.156-0.762 0.073-1.617 0.155-1.91 0.223-0.186 0.043-0.333 0.105-0.489 0.213-0.236 0.163-0.45 0.367-0.661 0.569-0.078 0.075-0.156 0.149-0.235 0.221-0.693 0.634-1.372 1.273-2.037 1.936 0.472 0.103 1.166 0.070 1.837 0.038 0.757-0.036 1.485-0.070 1.837 0.092 0.058 0.073 0.074 0.15 0.067 0.243-0.007 0.075-0.050 0.121-0.103 0.17-0.291 0.261-3.155 0.177-3.599 0.128-0.018-0.003-0.037-0.006-0.056-0.009-0.099-0.017-0.209-0.035-0.303-0.016-0.719 0.146-1.705 1.244-2.133 1.795l0.026-0.060c0.2-0.459 0.4-0.921 0.678-1.341 0.47-0.712 1.805-2.029 2.46-2.652 0.104-0.099 0.225-0.2 0.35-0.303 0.276-0.229 0.57-0.473 0.733-0.744 0.164-0.273 0.262-0.844 0.364-1.442 0.129-0.753 0.265-1.55 0.551-1.858 0.083-0.089 0.108-0.095 0.222-0.106 0.113 0.049 0.185 0.096 0.249 0.204 0.047 0.079 0.053 0.157 0.040 0.244-0.029 0.212-0.105 0.435-0.179 0.653-0.040 0.118-0.080 0.235-0.111 0.348-0.107 0.384-0.188 0.773-0.269 1.163-0.009 0.044-0.018 0.088-0.028 0.132 0.378-0.359 0.802-0.677 1.223-0.994 0.137-0.102 0.273-0.205 0.406-0.308 0.203-0.156 0.406-0.312 0.61-0.468 0.887-0.679 1.779-1.362 2.623-2.088z"></path>
<path fill="#fff" style="fill: var(--color1, #fff)" d="M5.245 0.035c-0.014 0.001-0.028 0.004-0.041 0.007-1.524 0.18-2.903 0.867-3.863 2.064-1.176 1.466-1.498 3.339-1.274 5.163 0.194 1.58 0.927 3.073 2.221 4.055 1.293 0.981 2.796 1.259 4.392 1.136 1.553-0.21 2.953-0.903 3.918-2.145 1.119-1.441 1.427-3.344 1.183-5.111-0.222-1.605-1.032-3.1-2.356-4.078-1.2-0.886-2.693-1.246-4.179-1.091zM5.743 2.082c0.834-0.010 1.589 0.144 2.245 0.679 0.803 0.655 1.166 1.688 1.258 2.683 0.119 1.281-0.023 2.795-0.896 3.819-0.601 0.705-1.373 0.987-2.281 1.066-0.017 0.002-0.034 0.004-0.051 0.005-0.771 0.039-1.574-0.186-2.17-0.675-0.819-0.672-1.165-1.694-1.252-2.712-0.109-1.275-0.008-2.829 0.876-3.849 0.599-0.691 1.376-0.952 2.271-1.016z"></path>
<path fill="#fff" style="fill: var(--color1, #fff)" d="M23.784 3.25c-0.005 0.001-0.011 0.001-0.016 0.002-1.041 0.099-1.93 0.506-2.608 1.307-0.847 1.001-1.136 2.406-1.010 3.68 0.106 1.073 0.553 2.133 1.42 2.822 0.874 0.695 1.994 0.859 3.086 0.729 0.86-0.103 1.427-0.481 2.022-1.078 0.001 0.058 0.002 0.117 0.003 0.177 0.016 0.809 0.035 1.788-0.574 2.39-0.41 0.404-0.996 0.49-1.551 0.479-0.599-0.012-1.203-0.149-1.629-0.597-0.121-0.127-0.2-0.285-0.278-0.44-0.014-0.027-0.027-0.055-0.041-0.082-0.217-0.001-0.443-0.008-0.672-0.015-0.555-0.018-1.128-0.037-1.646 0.039-0.045 0.117-0.012 0.244 0.020 0.365 0.006 0.024 0.013 0.048 0.018 0.071 0.309 0.913 0.969 1.617 1.837 2.051 1.234 0.617 2.989 0.671 4.291 0.241 0.957-0.316 1.783-0.956 2.235-1.856 0.174-0.353 0.285-0.733 0.33-1.123 0.090-0.714 0.082-1.465 0.074-2.202-0.003-0.268-0.005-0.534-0.003-0.797l0.015-5.965c-0.238 0-0.476 0.001-0.714 0.002-0.557 0.002-1.114 0.005-1.671-0.002l-0.001 0.781c-0.875-0.712-1.753-1.070-2.905-0.983-0.010 0.001-0.020 0.002-0.030 0.003zM24.416 5.155c0.464-0.039 0.949 0.042 1.349 0.284 0.457 0.277 0.74 0.726 0.865 1.234 0.179 0.729 0.167 1.729-0.248 2.378-0.33 0.516-0.806 0.71-1.385 0.83-0.512 0.056-1.040-0.009-1.475-0.303-0.512-0.346-0.789-0.914-0.892-1.504-0.124-0.714-0.039-1.55 0.403-2.147 0.344-0.464 0.82-0.689 1.383-0.772z"></path>
<path fill="#fff" style="fill: var(--color1, #fff)" d="M39.947 20.386c-0.76-0.619-1.71-0.85-2.681-0.827-1.136 0.087-1.822 0.422-2.572 1.26l-0.004-1.065-2.418 0.001 0.001 12.089 2.46-0.002-0.004-1.782 0.004-2.256c0.891 0.731 1.844 1.104 3.016 1.003 1.032-0.088 1.934-0.551 2.601-1.334 0.933-1.095 1.207-2.617 1.071-4.008-0.113-1.151-0.549-2.323-1.475-3.078zM36.607 21.551c0.489-0.051 1.014 0.061 1.416 0.346 0.552 0.39 0.814 1.030 0.904 1.673 0.117 0.837 0.033 1.819-0.518 2.502-0.377 0.468-0.831 0.664-1.415 0.742-0.509 0.049-1.066-0.066-1.483-0.365-0.476-0.34-0.727-0.858-0.818-1.419-0.138-0.848-0.114-2.001 0.432-2.713 0.377-0.492 0.881-0.695 1.482-0.767z"></path>
<path fill="#fff" style="fill: var(--color1, #fff)" d="M30.886 23.817c-0.201-2.57-2.475-4.494-5.082-4.3-2.613 0.194-4.57 2.442-4.369 5.018s2.485 4.502 5.097 4.299c2.606-0.202 4.554-2.447 4.353-5.017zM25.953 21.462c0.453-0.052 0.956 0.060 1.345 0.291 0.532 0.315 0.857 0.849 0.998 1.434 0.204 0.848 0.167 1.954-0.322 2.707-0.354 0.545-0.837 0.804-1.462 0.933-0.569 0.023-1.074-0.022-1.558-0.353-0.54-0.369-0.831-0.974-0.939-1.597-0.145-0.84-0.078-1.867 0.448-2.576 0.375-0.505 0.879-0.745 1.491-0.838z"></path>
<path fill="#fff" style="fill: var(--color1, #fff)" d="M4.189 16.522c0.183-0.025 0.381-0.022 0.566-0.028 1.346-0.043 2.79 0.186 3.802 1.137 0.74 0.695 0.958 1.528 0.978 2.506l-2.437 0.009c-0.028-0.481-0.101-0.865-0.482-1.208-0.509-0.458-1.271-0.567-1.936-0.534-0.523 0.026-1.068 0.167-1.421 0.574-0.257 0.296-0.341 0.68-0.298 1.061 0.042 0.368 0.23 0.66 0.539 0.868 0.483 0.324 1.101 0.446 1.662 0.57 1.234 0.273 2.774 0.489 3.764 1.32 0.607 0.51 0.89 1.186 0.947 1.959 0.070 0.945-0.186 1.831-0.826 2.548-0.891 0.996-2.219 1.4-3.524 1.484-1.441 0.098-3.034-0.184-4.161-1.132-0.827-0.695-1.177-1.585-1.261-2.633l2.483-0.004c0.113 0.52 0.305 0.953 0.74 1.288 0.598 0.461 1.439 0.553 2.173 0.472 0.573-0.063 1.175-0.284 1.533-0.751 0.223-0.291 0.302-0.651 0.252-1.010-0.051-0.37-0.264-0.671-0.578-0.875-0.354-0.23-0.792-0.343-1.197-0.449-1.335-0.35-2.937-0.465-4.050-1.333-0.602-0.469-0.953-1.109-1.042-1.861-0.108-0.925 0.073-1.793 0.67-2.53 0.747-0.923 1.956-1.318 3.105-1.449z"></path>
<path fill="#fff" style="fill: var(--color1, #fff)" d="M37.851 3.877c-0.874-0.562-2.028-0.661-3.044-0.623-1.099 0.072-2.383 0.321-3.14 1.189-0.405 0.464-0.558 1.023-0.583 1.622l2.271 0.009c0.247-0.489 0.549-0.832 1.097-1.003 0.497-0.155 1.146-0.155 1.608 0.095 0.267 0.145 0.481 0.393 0.567 0.684 0.047 0.159 0.061 0.33 0.075 0.496 0.002 0.027 0.004 0.053 0.007 0.080-0.155 0.171-0.293 0.289-0.509 0.378-0.512 0.212-1.125 0.251-1.708 0.289-0.203 0.013-0.402 0.026-0.593 0.046-1.708 0.178-3.299 0.8-3.173 2.792 0.025 0.401 0.132 0.748 0.306 1.109 0.445 0.701 1.045 1.137 1.867 1.318 0.996 0.219 2.201 0.116 3.076-0.433 0.302-0.189 0.555-0.425 0.798-0.682 0.050 0.346 0.119 0.678 0.206 1.017l2.287-0.004c-0.252-1.19-0.233-2.424-0.214-3.646 0.005-0.33 0.010-0.658 0.010-0.985-0-0.113 0.001-0.228 0.002-0.344 0.006-0.725 0.012-1.508-0.223-2.179-0.18-0.514-0.53-0.928-0.988-1.223zM36.633 8.099l0.069 0.037c0.099 0.507-0.029 1.177-0.294 1.612-0.29 0.478-0.76 0.838-1.311 0.968-0.505 0.119-0.953 0.054-1.391-0.219-0.182-0.162-0.328-0.331-0.405-0.565-0.088-0.27-0.073-0.596 0.065-0.848 0.307-0.559 1.407-0.705 2.319-0.826 0.369-0.049 0.706-0.094 0.949-0.16z"></path>
<path fill="#fff" style="fill: var(--color1, #fff)" d="M11.394 16.423h2.446l0.002 4.473c0.111-0.142 0.222-0.285 0.348-0.414 0.621-0.637 1.47-0.921 2.352-0.937 0.915-0.016 1.872 0.217 2.538 0.867 0.422 0.411 0.698 0.953 0.827 1.521 0.183 0.809 0.090 1.73 0.090 2.558l0.001 4.073-2.444 0.001c-0.020-1.091-0.002-2.185-0.002-3.277-0.002-0.881 0.221-2.5-0.405-3.196-0.286-0.318-0.69-0.45-1.11-0.472-0.57-0.030-1.206 0.042-1.636 0.447-0.266 0.251-0.425 0.592-0.499 0.944-0.15 0.71-0.067 1.53-0.064 2.253l0.002 3.3-2.447 0.001c-0.026-1.374-0.002-2.753-0.002-4.127l0.002-8.014z"></path>
<path fill="#fff" style="fill: var(--color1, #fff)" d="M46.18 3.251c0.136-0.010 0.272-0.016 0.409-0.016 0.879-0.005 1.689 0.249 2.321 0.87 0.408 0.406 0.693 0.917 0.822 1.475 0.198 0.836 0.093 1.808 0.093 2.667l0.005 4.010h-2.427l0.003-3.639c0-0.658 0.051-1.371-0.039-2.023-0.038-0.278-0.104-0.552-0.273-0.783-0.241-0.33-0.646-0.528-1.051-0.572-0.662-0.073-1.241 0.029-1.777 0.428-0.267 0.296-0.388 0.548-0.465 0.937-0.127 0.636-0.055 1.374-0.054 2.021l0.006 3.631-2.501 0.001 0.004-8.808 2.409 0.001c0.001 0.385 0.005 0.77 0.011 1.155 0.059-0.077 0.119-0.153 0.18-0.228 0.602-0.739 1.392-1.026 2.323-1.127z"></path>
<path fill="#fff" style="fill: var(--color1, #fff)" d="M60.406 3.252c1.007-0.061 2.014 0.105 2.887 0.625 1.017 0.606 1.555 1.491 1.836 2.606-0.809-0.010-1.617-0.010-2.426-0.002-0.188-0.437-0.454-0.815-0.86-1.083-0.42-0.278-0.945-0.395-1.442-0.286-0.573 0.125-1.050 0.466-1.362 0.955-0.495 0.776-0.544 1.919-0.321 2.789 0.157 0.613 0.506 1.193 1.076 1.511 0.468 0.261 1.076 0.32 1.59 0.165 0.67-0.203 1.043-0.738 1.342-1.323l2.354-0.002c-0.168 0.655-0.396 1.249-0.833 1.779-0.731 0.887-1.807 1.359-2.946 1.475-1.257 0.128-2.521-0.158-3.508-0.958-0.971-0.785-1.512-1.931-1.62-3.154-0.113-1.28 0.158-2.576 1.013-3.576 0.828-0.967 1.964-1.411 3.218-1.522z"></path>
<path fill="#fff" style="fill: var(--color1, #fff)" d="M18.531 3.296c0.226-0.014 0.452 0.013 0.677 0.032l-0.001 2.251-0.363-0.003c-0.805-0.002-1.717 0.050-2.313 0.661-0.273 0.28-0.427 0.627-0.51 1.002-0.147 0.661-0.073 1.42-0.070 2.096l0.005 2.921c-0.72 0.002-1.713 0.087-2.408-0.019-0.071-0.1-0.051-0.198-0.055-0.317l0-8.468 2.415-0.001c0.011 0.409 0.026 0.817 0.045 1.225 0.095-0.152 0.195-0.295 0.312-0.431 0.564-0.66 1.432-0.877 2.266-0.949z"></path>
<path fill="#fff" style="fill: var(--color1, #fff)" d="M52.085 3.45l2.49 0.002-0.003 5.833c0 0.984 0.056 1.992-0.011 2.972l-2.484 0.001c0.040-1.143 0.018-2.292 0.018-3.436l-0.010-5.372z"></path>
<path fill="#fff" style="fill: var(--color1, #fff)" d="M52.023 0.026l2.759-0.002c-0.006 0.679-0.005 1.358 0.002 2.037l-2.761 0.001v-2.036z"></path>
</symbol>
<symbol id="modal-closeX-mobile" viewBox="0 0 32 32">
<title>modal-closeX-mobile</title>
<path fill="#fff" style="fill: var(--color1, #fff)" d="M26.397 0l-11.315 11.312-11.312-11.312-3.771 3.771 11.312 11.312-11.312 11.312 3.771 3.771 11.312-11.312 11.315 11.312 3.771-3.771-11.312-11.312 11.312-11.312-3.771-3.771z"></path>
</symbol>
<symbol id="modal-closeX-tablet" viewBox="0 0 32 32">
<title>modal-closeX-tablet</title>
<path fill="#fff" style="fill: var(--color1, #fff)" d="M26.397 0l-11.315 11.312-11.312-11.312-3.771 3.771 11.312 11.312-11.312 11.312 3.771 3.771 11.312-11.312 11.315 11.312 3.771-3.771-11.312-11.312 11.312-11.312-3.771-3.771z"></path>
</symbol>
<symbol id="restaurant-icon" viewBox="0 0 28 32">
<title>restaurant-icon</title>
<path fill="#fff" style="fill: var(--color1, #fff)" d="M14.222 12.444h-3.556v-12.444h-3.556v12.444h-3.556v-12.444h-3.556v14.222c0 2.94 2.393 5.333 5.333 5.333h1.778v12.444h3.556v-12.444h1.778c2.94 0 5.333-2.393 5.333-5.333v-14.222h-3.556v12.444zM26.667 0h-1.778c-2.060 0-3.556 2.244-3.556 5.333v14.222h3.556v12.444h3.556v-30.222c0-0.472-0.187-0.924-0.521-1.257s-0.786-0.521-1.257-0.521z"></path>
</symbol>
<symbol id="star-black" viewBox="0 0 34 32">
<title>star-black</title>
<path d="M15.277 1.031c0.579-1.375 2.551-1.375 3.13 0l3.417 8.116c0.244 0.58 0.796 0.976 1.43 1.026l8.869 0.702c1.503 0.119 2.112 1.972 0.967 2.941l-6.757 5.718c-0.483 0.408-0.694 1.049-0.546 1.66l2.064 8.55c0.35 1.449-1.245 2.594-2.532 1.817l-7.593-4.582c-0.542-0.327-1.224-0.327-1.767 0l-7.593 4.582c-1.287 0.776-2.882-0.369-2.532-1.817l2.064-8.55c0.147-0.611-0.063-1.252-0.546-1.66l-6.757-5.718c-1.145-0.969-0.536-2.822 0.967-2.941l8.869-0.702c0.633-0.050 1.185-0.446 1.429-1.026l3.417-8.116z"></path>
</symbol>
<symbol id="star-empty" viewBox="0 0 34 32">
<title>star-empty</title>
<path stroke-linejoin="miter" stroke-linecap="butt" stroke-miterlimit="4" stroke-width="1.6842" d="M16.053 1.359c0.29-0.688 1.289-0.688 1.579 0l3.416 8.115c0.368 0.873 1.197 1.465 2.14 1.539l8.868 0.702c0.771 0.061 1.046 0.986 0.49 1.457l-6.758 5.719c-0.724 0.612-1.044 1.579-0.821 2.502l2.066 8.549c0.167 0.694-0.609 1.303-1.28 0.898h-0.002l-7.59-4.581c-0.81-0.489-1.828-0.489-2.638 0l-7.592 4.581c-0.671 0.405-1.447-0.204-1.28-0.898l2.066-8.549c0.223-0.923-0.097-1.889-0.821-2.502l-6.758-5.719c-0.556-0.472-0.281-1.396 0.49-1.457l8.868-0.702c0.943-0.075 1.772-0.666 2.14-1.539l3.416-8.115z"></path>
</symbol>
<symbol id="twitterX" viewBox="0 0 36 32">
<title>twitterX</title>
<path fill="#fff" style="fill: var(--color1, #fff)" d="M28.352 0h5.52l-12.060 13.555 14.188 18.445h-11.109l-8.701-11.187-9.956 11.187h-5.524l12.899-14.498-13.61-17.502h11.391l7.865 10.225 9.096-10.225zM26.415 28.751h3.059l-19.745-25.672h-3.282l19.968 25.672z"></path>
</symbol>
<symbol id="youtube" viewBox="0 0 45 32">
<title>youtube</title>
<path fill="#fff" style="fill: var(--color1, #fff)" d="M41.828 4.7c-0.243-0.902-0.718-1.724-1.377-2.385s-1.481-1.138-2.382-1.383c-3.341-0.917-16.706-0.932-16.706-0.932s-13.363-0.015-16.706 0.862c-0.9 0.256-1.72 0.74-2.38 1.404s-1.138 1.487-1.388 2.389c-0.881 3.341-0.89 10.27-0.89 10.27s-0.009 6.963 0.866 10.27c0.491 1.828 1.931 3.273 3.761 3.765 3.375 0.917 16.704 0.932 16.704 0.932s13.365 0.015 16.706-0.86c0.901-0.245 1.723-0.72 2.384-1.38s1.139-1.481 1.385-2.381c0.883-3.339 0.89-10.266 0.89-10.266s0.043-6.965-0.868-10.306zM17.088 21.344l0.011-12.8 11.108 6.411-11.119 6.389z"></path>
</symbol>
</defs>
</svg>
